Coordinates
version=1
nRows=5
nColumns=40
inDegrees=yes

Units are S.I. units (second, meters, Newtons, ...)
If the header above contains a line with 'inDegrees', this indicates whether rotational values are in degrees (yes) or radians (no).

endheader
time	pelvis_tilt	pelvis_list	pelvis_rotation	pelvis_tx	pelvis_ty	pelvis_tz	hip_flexion_r	hip_adduction_r	hip_rotation_r	knee_angle_r	knee_angle_r_beta	ankle_angle_r	subtalar_angle_r	mtp_angle_r	hip_flexion_l	hip_adduction_l	hip_rotation_l	knee_angle_l	knee_angle_l_beta	ankle_angle_l	subtalar_angle_l	mtp_angle_l	lumbar_extension	lumbar_bending	lumbar_rotation	arm_flex_r	arm_add_r	arm_rot_r	elbow_flex_r	pro_sup_r	wrist_flex_r	wrist_dev_r	arm_flex_l	arm_add_l	arm_rot_l	elbow_flex_l	pro_sup_l	wrist_flex_l	wrist_dev_l
      0.61000000	     11.26935307	     -2.18753211	     -1.99868083	      0.44845507	      1.04303939	     -0.25808202	      9.40037750	      1.52347439	     -4.24948656	      3.27460964	      0.05715272	     -7.25870678	      0.00000000	      0.00000000	    -24.09615827	     -0.39206931	     -5.56317671	      6.56920511	      0.11465426	     11.38551992	      0.00000000	      0.00000000	    -29.12681798	      0.70103383	      7.06256633	    -10.29612638	      4.20717503	    -26.32254970	     48.41654466	     89.30765796	      0.23589702	     10.71046644	     23.07342381	     -5.38135445	      6.21273342	     48.72933957	     89.43000637	    -10.17510048	      0.49183487
      0.62000000	     11.37436377	     -2.36125037	     -1.99966298	      0.45950182	      1.04213783	     -0.25721365	      9.05983794	      1.84156848	     -4.06620018	      3.03728769	      0.05301067	     -7.51760504	      0.00000000	      0.00000000	    -24.65158580	     -0.63272052	     -5.79879263	      7.09671345	      0.12386102	     11.58191406	      0.00000000	      0.00000000	    -29.22313324	      0.99062647	      7.08593872	    -10.29116857	      4.18720813	    -26.27042983	     48.27416236	     89.29896565	      0.29612456	     10.66093059	     23.03831447	     -5.35000572	      6.31156670	     48.91939873	     89.42223007	    -10.25565935	      0.37246687
      0.63000000	     11.36716088	     -2.46532249	     -2.01271012	      0.47060345	      1.04123613	     -0.25618771	      8.89155895	      2.07934775	     -3.97149812	      3.16947091	      0.05531770	     -7.55609255	      0.00000000	      0.00000000	    -25.07056801	     -0.82024347	     -5.76504822	      7.62941907	      0.13315848	     11.45764685	      0.00000000	      0.00000000	    -29.19491326	      1.18957456	      7.11458038	    -10.27094416	      4.19597007	    -26.26712704	     48.06610863	     89.29739515	      0.30484364	     10.66950775	     22.94982203	     -5.31317197	      6.40519311	     49.08195446	     89.42758532	    -10.27115858	      0.31063856
      0.64000000	     11.45930726	     -2.82396922	     -1.87623442	      0.48227245	      1.04070127	     -0.25536872	      8.50000027	      2.55547307	     -4.30781171	      3.37016398	      0.05882046	     -7.78773056	      0.00000000	      0.00000000	    -25.57339078	     -1.33031718	     -6.01391607	      8.31131213	      0.14505976	     11.48947772	      0.00000000	      0.00000000	    -29.24523639	      1.73421349	      7.01569630	    -10.25391718	      4.13629172	    -26.14006522	     47.86316601	     89.29770375	      0.35954842	     10.59052055	     22.62127262	     -5.26146722	      6.26338442	     49.32493466	     89.42640843	    -10.41718130	      0.13265250
      0.65000000	     11.45301371	     -2.98113582	     -1.86368258	      0.49381685	      1.04023724	     -0.25423397	      8.24975248	      2.82608666	     -4.27924307	      3.78674964	      0.06609125	     -7.93616145	      0.00000000	      0.00000000	    -25.94019485	     -1.60264714	     -5.91451751	      8.98775765	      0.15686596	     11.15649372	      0.00000000	      0.00000000	    -29.19541144	      2.00976977	      7.01890021	    -10.23344127	      4.14413631	    -26.13728244	     47.63082469	     89.29922627	      0.35573567	     10.59699053	     22.35355178	     -5.20082643	      6.25599417	     49.39703765	     89.43295044	    -10.45314211	      0.07904054
